<svg id="Layer_2" data-name="Layer 2" xmlns="http://www.w3.org/2000/svg" viewBox="0 0 1701 680"><defs><style>.cls-1,.cls-2,.cls-3{fill:none;}.cls-1,.cls-2,.cls-3,.cls-4,.cls-5{stroke:#000;}.cls-1,.cls-3,.cls-4,.cls-5{stroke-linecap:square;}.cls-1,.cls-2,.cls-4,.cls-5{stroke-miterlimit:10;}.cls-1,.cls-2,.cls-3,.cls-4{stroke-width:4px;}.cls-3{stroke-linejoin:bevel;}.cls-4{fill:red;}.cls-5{fill:blue;stroke-width:2px;}</style></defs><path class="cls-1" d="M915,293s12.74-.5,36.52-.5" transform="translate(-140 -212)"/><path class="cls-1" d="M964,292.5h32" transform="translate(-140 -212)"/><path class="cls-1" d="M1011.07,292.5h9.78" transform="translate(-140 -212)"/><path class="cls-1" d="M1030.93,292.5h59.85" transform="translate(-140 -212)"/><path class="cls-1" d="M1105.89,292.5h7.7" transform="translate(-140 -212)"/><path class="cls-1" d="M1125.74,292.5h59.56" transform="translate(-140 -212)"/><path class="cls-1" d="M1199.22,292.5h9.19" transform="translate(-140 -212)"/><path class="cls-1" d="M1220.56,292.5h78.51" transform="translate(-140 -212)"/><path class="cls-1" d="M1313,292.5h9.78" transform="translate(-140 -212)"/><path class="cls-1" d="M1333.44,292.5h82.08" transform="translate(-140 -212)"/><path class="cls-1" d="M1429.74,292.5h8.3" transform="translate(-140 -212)"/><path class="cls-1" d="M1451.67,292.5h99.55" transform="translate(-140 -212)"/><path class="cls-1" d="M1582,292.5h80.46" transform="translate(-140 -212)"/><line class="cls-1" x1="826.5" y1="80.5" x2="826.5" y2="2.5"/><line class="cls-1" x1="877.5" y1="2.5" x2="877.5" y2="80.5"/><line class="cls-1" x1="923.5" y1="2.5" x2="923.5" y2="80.5"/><line class="cls-1" x1="971.5" y1="2.5" x2="971.5" y2="80.5"/><line class="cls-1" x1="1018.5" y1="2.5" x2="1018.5" y2="80.5"/><line class="cls-1" x1="1064.5" y1="2.5" x2="1064.5" y2="80.5"/><line class="cls-1" x1="1118.5" y1="2.5" x2="1118.5" y2="80.5"/><line class="cls-1" x1="1179.5" y1="2.5" x2="1179.5" y2="80.5"/><line class="cls-1" x1="1236.5" y1="2.5" x2="1236.5" y2="80.5"/><line class="cls-1" x1="1293.5" y1="2.5" x2="1293.5" y2="80.5"/><line class="cls-1" x1="1353.5" y1="2.5" x2="1353.5" y2="41.5"/><line class="cls-1" x1="1365.5" y1="41.5" x2="1365.5" y2="64.5"/><line class="cls-1" x1="1353.5" y1="41.5" x2="1365.5" y2="41.5"/><line class="cls-1" x1="1446.5" y1="2.5" x2="1446.5" y2="59.5"/><line class="cls-1" x1="1365.5" y1="76.5" x2="1365.5" y2="80.5"/><line class="cls-1" x1="1446.5" y1="76" x2="1446.5" y2="81"/><line class="cls-1" x1="1522.5" y1="2.5" x2="1522.5" y2="59.5"/><line class="cls-1" x1="1522.5" y1="80.5" x2="1522.5" y2="76.5"/><line class="cls-1" x1="1597.5" y1="2.5" x2="1597.5" y2="43.5"/><line class="cls-1" x1="1596.5" y1="59.5" x2="1596.5" y2="66.5"/><line class="cls-1" x1="1698" y1="66" x2="1596.5" y2="66.5"/><line class="cls-1" x1="1561.5" y1="98.5" x2="1580.5" y2="79.5"/><line class="cls-1" x1="1558.5" y1="96.5" x2="1563.5" y2="101.5"/><line class="cls-1" x1="1575.5" y1="114.5" x2="1575.5" y2="201.5"/><line class="cls-1" x1="1698" y1="142" x2="1575.5" y2="142.5"/><line class="cls-1" x1="1633.5" y1="142.5" x2="1633.5" y2="219.5"/><line class="cls-2" x1="1574.5" y1="202.5" x2="1592.5" y2="220.5"/><line class="cls-1" x1="1614.5" y1="219.5" x2="1593.5" y2="219.5"/><line class="cls-1" x1="1650.5" y1="221.5" x2="1668.5" y2="221.5"/><line class="cls-1" x1="1650" y1="239.5" x2="1668" y2="239.5"/><line class="cls-1" x1="1633.5" y1="239.5" x2="1633.5" y2="316.5"/><line class="cls-1" x1="1698" y1="316.5" x2="1575.5" y2="316.5"/><line class="cls-1" x1="1575.5" y1="240.5" x2="1575.5" y2="316.5"/><line class="cls-1" x1="1614.5" y1="240.5" x2="1575.5" y2="240.5"/><line class="cls-1" x1="1575.5" y1="334.5" x2="1575.5" y2="384.5"/><line class="cls-1" x1="1698" y1="384.5" x2="1575.5" y2="384.5"/><line class="cls-1" x1="1614.5" y1="334.5" x2="1614.5" y2="384.5"/><line class="cls-1" x1="1698.75" y1="457.75" x2="1518.5" y2="458.5"/><line class="cls-1" x1="1518.5" y1="384.5" x2="1518.5" y2="458.5"/><line class="cls-1" x1="1497.5" y1="384.5" x2="1456.5" y2="384.5"/><line class="cls-1" x1="1456.5" y1="428.5" x2="1456.5" y2="384.5"/><line class="cls-1" x1="1502.5" y1="581.5" x2="1502.5" y2="677.5"/><line class="cls-2" x1="1530.5" y1="565.5" x2="1701" y2="565.5"/><line class="cls-1" x1="1469" y1="565.5" x2="1342" y2="565.5"/><line class="cls-1" x1="1341.5" y1="677.5" x2="1341.5" y2="565.5"/><line class="cls-1" x1="1209" y1="565.5" x2="1342" y2="565.5"/><line class="cls-1" x1="1172.5" y1="565.5" x2="1172.5" y2="677.5"/><line class="cls-1" x1="981.5" y1="565.5" x2="1172.5" y2="565.5"/><line class="cls-1" x1="1116.5" y1="565.5" x2="1116.5" y2="594.5"/><line class="cls-1" x1="1117.5" y1="619.5" x2="1172.5" y2="619.5"/><line class="cls-1" x1="1116.5" y1="644.5" x2="1116.5" y2="677.5"/><line class="cls-1" x1="874.5" y1="565.5" x2="950.5" y2="565.5"/><line class="cls-1" x1="950.5" y1="592" x2="950.5" y2="566"/><line class="cls-1" x1="894.5" y1="616.5" x2="950.5" y2="616.5"/><line class="cls-1" x1="950.5" y1="677.5" x2="950.5" y2="641.5"/><line class="cls-1" x1="894.5" y1="565.5" x2="894.5" y2="677.5"/><line class="cls-1" x1="774.5" y1="565.5" x2="848.5" y2="565.5"/><path class="cls-1" d="M1053.44,326.5h439.12" transform="translate(-140 -212)"/><path class="cls-1" d="M1518.63,326.5H1609" transform="translate(-140 -212)"/><path class="cls-1" d="M1624.41,326.5h41.66" transform="translate(-140 -212)"/><path class="cls-3" d="M1428.26,561.5H1665.5L1680,544" transform="translate(-140 -212)"/><path class="cls-1" d="M1677.15,326.5" transform="translate(-140 -212)"/><path class="cls-1" d="M1406.63,561.5h-199.7" transform="translate(-140 -212)"/><path class="cls-1" d="M1192.41,561.5H960.5V459.22" transform="translate(-140 -212)"/><path class="cls-1" d="M960.5,448.26V326.5h76.35" transform="translate(-140 -212)"/><line class="cls-1" x1="1071.5" y1="114.5" x2="1071.5" y2="349.5"/><line class="cls-1" x1="1299.5" y1="232.5" x2="1071.5" y2="232.5"/><line class="cls-1" x1="1299.5" y1="114.5" x2="1299.5" y2="328.5"/><line class="cls-1" x1="1289.5" y1="328.5" x2="1289.5" y2="349.5"/><line class="cls-1" x1="1299.5" y1="328.5" x2="1289.5" y2="328.5"/><line class="cls-1" x1="1350.5" y1="114.5" x2="1350.5" y2="349.5"/><line class="cls-1" x1="1540.5" y1="232.5" x2="1350.5" y2="232.5"/><line class="cls-1" x1="820.5" y1="197.5" x2="1071.5" y2="197.5"/><line class="cls-1" x1="1008.5" y1="197.5" x2="1008.5" y2="349.5"/><line class="cls-1" x1="820.5" y1="230.5" x2="872.5" y2="230.5"/><line class="cls-1" x1="894.5" y1="197.5" x2="894.5" y2="230.5"/><line class="cls-2" x1="1540.5" y1="332.5" x2="1540.5" y2="232.5"/><line class="cls-1" x1="1540.5" y1="129.5" x2="1540.5" y2="232.5"/><line class="cls-2" x1="1526.5" y1="113.5" x2="1541.5" y2="128.5"/><path class="cls-1" d="M1564,597H1455.89" transform="translate(-140 -212)"/><path class="cls-1" d="M1437.89,597H1306.78" transform="translate(-140 -212)"/><path class="cls-1" d="M1291.89,597h-89.11" transform="translate(-140 -212)"/><path class="cls-1" d="M1187.22,597H1185" transform="translate(-140 -212)"/><line class="cls-1" x1="1424" y1="533" x2="1424" y2="385"/><path class="cls-1" d="M1185,745h47.56" transform="translate(-140 -212)"/><path class="cls-1" d="M1247.22,745h11.11" transform="translate(-140 -212)"/><path class="cls-1" d="M1274.33,745h95.34" transform="translate(-140 -212)"/><path class="cls-1" d="M1382.78,745H1564" transform="translate(-140 -212)"/><line class="cls-1" x1="1045" y1="385" x2="1045" y2="533"/><line class="cls-1" x1="1071" y1="450" x2="1071" y2="533"/><line class="cls-1" x1="1045" y1="450" x2="1071" y2="450"/><line class="cls-1" x1="1424" y1="450" x2="1071" y2="450"/><line class="cls-1" x1="1117" y1="533" x2="1117" y2="450"/><line class="cls-1" x1="1227" y1="450" x2="1227" y2="533"/><line class="cls-1" x1="1252" y1="450" x2="1252" y2="533"/><line class="cls-1" x1="1335" y1="450" x2="1335" y2="533"/><line class="cls-1" x1="1389" y1="450" x2="1389" y2="533"/><line class="cls-1" x1="1335" y1="492" x2="1367" y2="492"/><line class="cls-1" x1="1148" y1="450" x2="1148" y2="385"/><line class="cls-1" x1="1256" y1="450" x2="1256" y2="385"/><line class="cls-1" x1="1288" y1="407" x2="1256" y2="407"/><line class="cls-1" x1="1306" y1="407" x2="1306" y2="450"/><line class="cls-1" x1="774" y1="678" x2="1699" y2="678"/><line class="cls-1" x1="1699" y1="566" x2="1699" y2="678"/><line class="cls-1" x1="1699" y1="458" x2="1699" y2="2"/><line class="cls-1" x1="775" y1="2" x2="1699" y2="2"/><path class="cls-1" d="M1807.5,671.5v6.83" transform="translate(-140 -212)"/><path class="cls-1" d="M1807.5,701v48.44" transform="translate(-140 -212)"/><path class="cls-1" d="M1807.5,774.78v2.72" transform="translate(-140 -212)"/><line class="cls-1" x1="1667" y1="492" x2="1569" y2="492"/><line class="cls-1" x1="1569" y1="507" x2="1569" y2="492"/><line class="cls-1" x1="1477" y1="533" x2="1477" y2="460"/><line class="cls-1" x1="1456" y1="458" x2="1518" y2="458"/><line class="cls-1" x1="1456" y1="533" x2="1477" y2="533"/><line class="cls-1" x1="1477" y1="507" x2="1534" y2="507"/><line class="cls-1" x1="1534" y1="488" x2="1534" y2="533"/><line class="cls-1" x1="774" y1="566" x2="774" y2="678"/><line class="cls-1" x1="820" y1="418" x2="820" y2="350"/><line class="cls-1" x1="848" y1="450" x2="1008" y2="450"/><line class="cls-1" x1="1009" y1="350" x2="1009" y2="450"/><line class="cls-1" x1="989" y1="450" x2="990" y2="533"/><line class="cls-1" x1="1009" y1="533" x2="990" y2="533"/><line class="cls-1" x1="848" y1="533" x2="848" y2="450"/><line class="cls-1" x1="922" y1="533" x2="990" y2="533"/><line class="cls-1" x1="775" y1="2" x2="775" y2="230"/><line class="cls-1" x1="553" y1="116" x2="553" y2="231"/><line class="cls-1" x1="775" y1="230" x2="553" y2="230"/><line class="cls-1" x1="6" y1="116" x2="553" y2="116"/><line class="cls-1" x1="6" y1="524" x2="6" y2="116"/><line class="cls-1" x1="6" y1="559" x2="6" y2="678"/><line class="cls-1" x1="553" y1="678" x2="6" y2="678"/><path class="cls-1" d="M693,771v19.33" transform="translate(-140 -212)"/><path class="cls-1" d="M693,810.78V890" transform="translate(-140 -212)"/><path class="cls-1" d="M914,771H863.82" transform="translate(-140 -212)"/><path class="cls-1" d="M830,771h-32.3" transform="translate(-140 -212)"/><path class="cls-1" d="M760.11,771H693" transform="translate(-140 -212)"/><line class="cls-1" x1="774" y1="566" x2="774" y2="559"/><path class="cls-1" d="M222,328v35.22" transform="translate(-140 -212)"/><path class="cls-1" d="M222,376.26v16" transform="translate(-140 -212)"/><path class="cls-1" d="M222,409.74v48.59" transform="translate(-140 -212)"/><path class="cls-1" d="M222,472v13" transform="translate(-140 -212)"/><path class="cls-1" d="M222,502.19v53.62" transform="translate(-140 -212)"/><path class="cls-1" d="M222,567.07V579" transform="translate(-140 -212)"/><path class="cls-1" d="M222,592.56V650" transform="translate(-140 -212)"/><path class="cls-1" d="M222,663.89V675" transform="translate(-140 -212)"/><path class="cls-1" d="M222,687.22V715" transform="translate(-140 -212)"/><line class="cls-1" x1="6" y1="503" x2="82" y2="503"/><line class="cls-1" x1="6" y1="456" x2="82" y2="456"/><line class="cls-1" x1="6" y1="410" x2="82" y2="410"/><line class="cls-1" x1="6" y1="362" x2="82" y2="362"/><line class="cls-1" x1="6" y1="314" x2="82" y2="314"/><line class="cls-1" x1="6" y1="266" x2="82" y2="266"/><line class="cls-1" x1="6" y1="219" x2="82" y2="219"/><line class="cls-1" x1="6" y1="173" x2="82" y2="173"/><path class="cls-1" d="M256,410h31" transform="translate(-140 -212)"/><path class="cls-1" d="M300.11,410h9.33" transform="translate(-140 -212)"/><path class="cls-1" d="M322.78,410h59.55" transform="translate(-140 -212)"/><path class="cls-1" d="M395.67,410h10" transform="translate(-140 -212)"/><path class="cls-1" d="M419.67,410H481" transform="translate(-140 -212)"/><path class="cls-1" d="M493,410h11.33" transform="translate(-140 -212)"/><path class="cls-1" d="M515.89,410h62" transform="translate(-140 -212)"/><path class="cls-1" d="M590.33,410h9.56" transform="translate(-140 -212)"/><path class="cls-1" d="M610.11,410H645" transform="translate(-140 -212)"/><line class="cls-1" x1="505" y1="116" x2="505" y2="235"/><line class="cls-1" x1="116" y1="116" x2="116" y2="198"/><line class="cls-1" x1="164" y1="116" x2="164" y2="198"/><line class="cls-1" x1="213" y1="116" x2="213" y2="198"/><line class="cls-1" x1="262" y1="116" x2="262" y2="198"/><line class="cls-1" x1="311" y1="116" x2="311" y2="198"/><line class="cls-1" x1="358" y1="116" x2="358" y2="198"/><line class="cls-1" x1="406" y1="116" x2="406" y2="198"/><line class="cls-1" x1="454" y1="116" x2="454" y2="198"/><path class="cls-1" d="M222,358h9.67" transform="translate(-140 -212)"/><path class="cls-1" d="M246.11,358H256" transform="translate(-140 -212)"/><path class="cls-1" d="M256,439v84.67" transform="translate(-140 -212)"/><path class="cls-1" d="M256,541V683" transform="translate(-140 -212)"/><path class="cls-1" d="M610,439H462.78" transform="translate(-140 -212)"/><path class="cls-1" d="M445.67,439H256" transform="translate(-140 -212)"/><path class="cls-1" d="M666,478v74.67" transform="translate(-140 -212)"/><path class="cls-1" d="M666,589.67V736" transform="translate(-140 -212)"/><path class="cls-1" d="M300,736h2.56" transform="translate(-140 -212)"/><path class="cls-1" d="M323.22,736H456.44" transform="translate(-140 -212)"/><path class="cls-1" d="M528.78,736H666" transform="translate(-140 -212)"/><line class="cls-1" x1="116" y1="340" x2="526" y2="338"/><line class="cls-1" x1="229" y1="227" x2="229" y2="339"/><line class="cls-1" x1="341" y1="227" x2="341" y2="506"/><line class="cls-1" x1="470" y1="227" x2="470" y2="235"/><line class="cls-1" x1="470" y1="337" x2="470" y2="253"/><line class="cls-1" x1="526" y1="266" x2="488" y2="266"/><line class="cls-1" x1="242" y1="340" x2="242" y2="524"/><line class="cls-1" x1="160" y1="383" x2="160" y2="524"/><path class="cls-1" d="M382,595H342.89" transform="translate(-140 -212)"/><path class="cls-1" d="M328.56,595H300" transform="translate(-140 -212)"/><line class="cls-1" x1="183" y1="340" x2="183" y2="383"/><line class="cls-1" x1="183" y1="416" x2="183" y2="524"/><line class="cls-1" x1="116" y1="471" x2="160" y2="471"/><path class="cls-1" d="M256,650h25.15" transform="translate(-140 -212)"/><path class="cls-1" d="M296.7,650H300" transform="translate(-140 -212)"/><path class="cls-1" d="M696,480.85V478h36.44" transform="translate(-140 -212)"/><path class="cls-1" d="M747,478h11.33" transform="translate(-140 -212)"/><path class="cls-1" d="M769,478h11.56" transform="translate(-140 -212)"/><path class="cls-1" d="M807.81,478h22.82" transform="translate(-140 -212)"/><path class="cls-1" d="M858.48,478H924v82.56" transform="translate(-140 -212)"/><path class="cls-1" d="M924,573V736H829.15" transform="translate(-140 -212)"/><path class="cls-1" d="M793.3,736H696v-6.26" transform="translate(-140 -212)"/><path class="cls-1" d="M696,704V658.33" transform="translate(-140 -212)"/><path class="cls-1" d="M696,644.41V618" transform="translate(-140 -212)"/><path class="cls-1" d="M696,606.78V495.07" transform="translate(-140 -212)"/><line class="cls-1" x1="614" y1="266" x2="614" y2="524"/><line class="cls-1" x1="633" y1="450" x2="784" y2="450"/><line class="cls-1" x1="724" y1="266" x2="724" y2="450"/><line class="cls-1" x1="633" y1="268" x2="633" y2="292"/><line class="cls-1" x1="724" y1="292" x2="633" y2="292"/><line class="cls-1" x1="724" y1="301" x2="784" y2="301"/><line class="cls-1" x1="556" y1="284" x2="614" y2="284"/><line class="cls-1" x1="556" y1="421" x2="614" y2="421"/><line class="cls-1" x1="556" y1="373" x2="585" y2="373"/><line class="cls-1" x1="585" y1="421" x2="585" y2="373"/><line class="cls-1" x1="556" y1="504" x2="614" y2="504"/><path class="cls-1" d="M146,771H283.89" transform="translate(-140 -212)"/><path class="cls-1" d="M299.67,771H448.78" transform="translate(-140 -212)"/><path class="cls-1" d="M470.11,771H668" transform="translate(-140 -212)"/><path class="cls-1" d="M146,818h73.22" transform="translate(-140 -212)"/><path class="cls-1" d="M233.67,818h7.55" transform="translate(-140 -212)"/><path class="cls-1" d="M255.89,818H349" transform="translate(-140 -212)"/><line class="cls-1" x1="209" y1="559" x2="209" y2="606"/><line class="cls-1" x1="197" y1="678" x2="197" y2="625"/><line class="cls-1" x1="161" y1="678" x2="161" y2="606"/><line class="cls-1" x1="95" y1="606" x2="95" y2="678"/><line class="cls-1" x1="72" y1="559" x2="72" y2="588"/><line class="cls-1" x1="161" y1="559" x2="161" y2="588"/><rect class="cls-4" x="849" y="490" width="46" height="36"/><rect class="cls-4" x="922" y="450" width="68" height="49"/><rect class="cls-4" x="1477" y="459" width="72" height="30"/><rect class="cls-4" x="505" y="116" width="48" height="73"/><line class="cls-1" x1="505" y1="224" x2="534" y2="224"/><rect class="cls-4" x="41" y="503" width="41" height="28"/><line class="cls-1" x1="83" y1="503" x2="125" y2="503"/><line class="cls-1" x1="125" y1="531" x2="112" y2="531"/><circle class="cls-5" cx="6.5" cy="541.5" r="5.5"/><circle class="cls-5" cx="24.5" cy="541.5" r="5.5"/><circle class="cls-5" cx="24.5" cy="518.5" r="5.5"/><circle class="cls-5" cx="143.5" cy="541.5" r="5.5"/><circle class="cls-5" cx="143.5" cy="488.5" r="5.5"/><circle class="cls-5" cx="98.5" cy="488.5" r="5.5"/><circle class="cls-5" cx="98.5" cy="445.5" r="5.5"/><circle class="cls-5" cx="98.5" cy="361.5" r="5.5"/><circle class="cls-5" cx="98.5" cy="318.5" r="5.5"/><circle class="cls-5" cx="98.5" cy="266.5" r="5.5"/><circle class="cls-5" cx="164.5" cy="212.5" r="5.5"/><circle class="cls-5" cx="98.5" cy="212.5" r="5.5"/><circle class="cls-5" cx="98.5" cy="159.5" r="5.5"/><circle class="cls-5" cx="262.5" cy="212.5" r="5.5"/><circle class="cls-5" cx="357.5" cy="212.5" r="5.5"/><circle class="cls-5" cx="313.5" cy="212.5" r="5.5"/><circle class="cls-5" cx="454.5" cy="212.5" r="5.5"/><circle class="cls-5" cx="488.5" cy="212.5" r="5.5"/><circle class="cls-5" cx="488.5" cy="250.5" r="5.5"/><circle class="cls-5" cx="542.5" cy="251.5" r="5.5"/><circle class="cls-5" cx="542.5" cy="212.5" r="5.5"/><circle class="cls-5" cx="542.5" cy="360.5" r="5.5"/><circle class="cls-5" cx="542.5" cy="541.5" r="5.5"/><circle class="cls-5" cx="341.5" cy="541.5" r="5.5"/><circle class="cls-5" cx="542.5" cy="589.5" r="5.5"/><circle class="cls-5" cx="577.5" cy="589.5" r="5.5"/><circle class="cls-5" cx="638.5" cy="541.5" r="5.5"/><circle class="cls-5" cx="638.5" cy="568.5" r="5.5"/><circle class="cls-5" cx="708.5" cy="568.5" r="5.5"/><circle class="cls-5" cx="708.5" cy="541.5" r="5.5"/><circle class="cls-5" cx="801.5" cy="541.5" r="5.5"/><circle class="cls-5" cx="801.5" cy="438.5" r="5.5"/><circle class="cls-5" cx="801.5" cy="355.5" r="5.5"/><circle class="cls-5" cx="801.5" cy="251.5" r="5.5"/><circle class="cls-5" cx="801.5" cy="97.5" r="5.5"/><circle class="cls-5" cx="877.5" cy="97.5" r="5.5"/><circle class="cls-5" cx="971.5" cy="98.5" r="5.5"/><circle class="cls-5" cx="1064.5" cy="98.5" r="5.5"/><circle class="cls-5" cx="1179.5" cy="98.5" r="5.5"/><circle class="cls-5" cx="1293.5" cy="98.5" r="5.5"/><circle class="cls-5" cx="1365.5" cy="98.5" r="5.5"/><circle class="cls-5" cx="1427.5" cy="98.5" r="5.5"/><circle class="cls-5" cx="1537.5" cy="98.5" r="5.5"/><circle class="cls-5" cx="1556.5" cy="117.5" r="5.5"/><circle class="cls-5" cx="1476.5" cy="98.5" r="5.5"/><circle class="cls-5" cx="1556.5" cy="229.5" r="5.5"/><circle class="cls-5" cx="1633.5" cy="229.5" r="5.5"/><circle class="cls-5" cx="1556.5" cy="325.5" r="5.5"/><circle class="cls-5" cx="1556.5" cy="369.5" r="5.5"/><circle class="cls-5" cx="1507.5" cy="369.5" r="5.5"/><circle class="cls-5" cx="1440.5" cy="369.5" r="5.5"/><circle class="cls-5" cx="1440.5" cy="442.5" r="5.5"/><circle class="cls-5" cx="1507.5" cy="442.5" r="5.5"/><circle class="cls-5" cx="1440.5" cy="549.5" r="5.5"/><circle class="cls-5" cx="1502.5" cy="549.5" r="5.5"/><circle class="cls-5" cx="1551.5" cy="549.5" r="5.5"/><circle class="cls-5" cx="1551.5" cy="477.5" r="5.5"/><circle class="cls-5" cx="1667.5" cy="477.5" r="5.5"/><circle class="cls-5" cx="1667.5" cy="549.5" r="5.5"/><circle class="cls-5" cx="1191.5" cy="550.5" r="5.5"/><circle class="cls-5" cx="965.5" cy="550.5" r="5.5"/><circle class="cls-5" cx="1027.5" cy="550.5" r="5.5"/><circle class="cls-5" cx="1027.5" cy="369.5" r="5.5"/><circle class="cls-5" cx="1158.5" cy="369.5" r="5.5"/><circle class="cls-5" cx="1291.5" cy="369.5" r="5.5"/></svg>