<svg id="Layer_2" data-name="Layer 2" xmlns="http://www.w3.org/2000/svg" viewBox="0 0 1920 1080"><defs><style>.cls-1,.cls-2,.cls-3{fill:none;}.cls-1,.cls-2,.cls-3,.cls-4,.cls-5{stroke:#000;}.cls-1,.cls-3,.cls-4,.cls-5{stroke-linecap:square;}.cls-1,.cls-2,.cls-4,.cls-5{stroke-miterlimit:10;}.cls-1,.cls-2,.cls-3,.cls-4{stroke-width:4px;}.cls-3{stroke-linejoin:bevel;}.cls-4{fill:red;}.cls-5{fill:blue;stroke-width:2px;}</style></defs><path class="cls-1" d="M915,293s12.74-.5,36.52-.5"/><path class="cls-1" d="M964,292.5h32"/><path class="cls-1" d="M1011.07,292.5h9.78"/><path class="cls-1" d="M1030.93,292.5h59.85"/><path class="cls-1" d="M1105.89,292.5h7.7"/><path class="cls-1" d="M1125.74,292.5h59.56"/><path class="cls-1" d="M1199.22,292.5h9.19"/><path class="cls-1" d="M1220.56,292.5h78.51"/><path class="cls-1" d="M1313,292.5h9.78"/><path class="cls-1" d="M1333.44,292.5h82.08"/><path class="cls-1" d="M1429.74,292.5h8.3"/><path class="cls-1" d="M1451.67,292.5h99.55"/><path class="cls-1" d="M1582,292.5h80.46"/><line class="cls-1" x1="966.5" y1="292.5" x2="966.5" y2="214.5"/><line class="cls-1" x1="1017.5" y1="214.5" x2="1017.5" y2="292.5"/><line class="cls-1" x1="1063.5" y1="214.5" x2="1063.5" y2="292.5"/><line class="cls-1" x1="1111.5" y1="214.5" x2="1111.5" y2="292.5"/><line class="cls-1" x1="1158.5" y1="214.5" x2="1158.5" y2="292.5"/><line class="cls-1" x1="1204.5" y1="214.5" x2="1204.5" y2="292.5"/><line class="cls-1" x1="1258.5" y1="214.5" x2="1258.5" y2="292.5"/><line class="cls-1" x1="1319.5" y1="214.5" x2="1319.5" y2="292.5"/><line class="cls-1" x1="1376.5" y1="214.5" x2="1376.5" y2="292.5"/><line class="cls-1" x1="1433.5" y1="214.5" x2="1433.5" y2="292.5"/><line class="cls-1" x1="1493.5" y1="214.5" x2="1493.5" y2="253.5"/><line class="cls-1" x1="1505.5" y1="253.5" x2="1505.5" y2="276.5"/><line class="cls-1" x1="1493.5" y1="253.5" x2="1505.5" y2="253.5"/><line class="cls-1" x1="1586.5" y1="214.5" x2="1586.5" y2="271.5"/><line class="cls-1" x1="1505.5" y1="288.5" x2="1505.5" y2="292.5"/><line class="cls-1" x1="1586.5" y1="288" x2="1586.5" y2="293"/><line class="cls-1" x1="1662.5" y1="214.5" x2="1662.5" y2="271.5"/><line class="cls-1" x1="1662.5" y1="292.5" x2="1662.5" y2="288.5"/><line class="cls-1" x1="1737.5" y1="214.5" x2="1737.5" y2="255.5"/><line class="cls-1" x1="1736.5" y1="271.5" x2="1736.5" y2="278.5"/><line class="cls-1" x1="1838" y1="278" x2="1736.5" y2="278.5"/><line class="cls-1" x1="1701.5" y1="310.5" x2="1720.5" y2="291.5"/><line class="cls-1" x1="1698.5" y1="308.5" x2="1703.5" y2="313.5"/><line class="cls-1" x1="1715.5" y1="326.5" x2="1715.5" y2="413.5"/><line class="cls-1" x1="1838" y1="354" x2="1715.5" y2="354.5"/><line class="cls-1" x1="1773.5" y1="354.5" x2="1773.5" y2="431.5"/><line class="cls-2" x1="1714.5" y1="414.5" x2="1732.5" y2="432.5"/><line class="cls-1" x1="1754.5" y1="431.5" x2="1733.5" y2="431.5"/><line class="cls-1" x1="1790.5" y1="433.5" x2="1808.5" y2="433.5"/><line class="cls-1" x1="1790" y1="451.5" x2="1808" y2="451.5"/><line class="cls-1" x1="1773.5" y1="451.5" x2="1773.5" y2="528.5"/><line class="cls-1" x1="1838" y1="528.5" x2="1715.5" y2="528.5"/><line class="cls-1" x1="1715.5" y1="452.5" x2="1715.5" y2="528.5"/><line class="cls-1" x1="1754.5" y1="452.5" x2="1715.5" y2="452.5"/><line class="cls-1" x1="1715.5" y1="546.5" x2="1715.5" y2="596.5"/><line class="cls-1" x1="1838" y1="596.5" x2="1715.5" y2="596.5"/><line class="cls-1" x1="1754.5" y1="546.5" x2="1754.5" y2="596.5"/><line class="cls-1" x1="1838.75" y1="669.75" x2="1658.5" y2="670.5"/><line class="cls-1" x1="1658.5" y1="596.5" x2="1658.5" y2="670.5"/><line class="cls-1" x1="1637.5" y1="596.5" x2="1596.5" y2="596.5"/><line class="cls-1" x1="1596.5" y1="640.5" x2="1596.5" y2="596.5"/><line class="cls-1" x1="1642.5" y1="793.5" x2="1642.5" y2="889.5"/><line class="cls-2" x1="1670.5" y1="777.5" x2="1841" y2="777.5"/><line class="cls-1" x1="1609" y1="777.5" x2="1482" y2="777.5"/><line class="cls-1" x1="1481.5" y1="889.5" x2="1481.5" y2="777.5"/><line class="cls-1" x1="1349" y1="777.5" x2="1482" y2="777.5"/><line class="cls-1" x1="1312.5" y1="777.5" x2="1312.5" y2="889.5"/><line class="cls-1" x1="1121.5" y1="777.5" x2="1312.5" y2="777.5"/><line class="cls-1" x1="1256.5" y1="777.5" x2="1256.5" y2="806.5"/><line class="cls-1" x1="1257.5" y1="831.5" x2="1312.5" y2="831.5"/><line class="cls-1" x1="1256.5" y1="856.5" x2="1256.5" y2="889.5"/><line class="cls-1" x1="1014.5" y1="777.5" x2="1090.5" y2="777.5"/><line class="cls-1" x1="1090.5" y1="804" x2="1090.5" y2="778"/><line class="cls-1" x1="1034.5" y1="828.5" x2="1090.5" y2="828.5"/><line class="cls-1" x1="1090.5" y1="889.5" x2="1090.5" y2="853.5"/><line class="cls-1" x1="1034.5" y1="777.5" x2="1034.5" y2="889.5"/><line class="cls-1" x1="914.5" y1="777.5" x2="988.5" y2="777.5"/><path class="cls-1" d="M1053.44,326.5h439.12"/><path class="cls-1" d="M1518.63,326.5H1609"/><path class="cls-1" d="M1624.41,326.5h41.66"/><path class="cls-3" d="M1428.26,561.5H1665.5L1680,544"/><path class="cls-1" d="M1406.63,561.5h-199.7"/><path class="cls-1" d="M1192.41,561.5H960.5V459.22"/><path class="cls-1" d="M960.5,448.26V326.5h76.35"/><line class="cls-1" x1="1211.5" y1="326.5" x2="1211.5" y2="561.5"/><line class="cls-1" x1="1439.5" y1="444.5" x2="1211.5" y2="444.5"/><line class="cls-1" x1="1439.5" y1="326.5" x2="1439.5" y2="540.5"/><line class="cls-1" x1="1429.5" y1="540.5" x2="1429.5" y2="561.5"/><line class="cls-1" x1="1439.5" y1="540.5" x2="1429.5" y2="540.5"/><line class="cls-1" x1="1490.5" y1="326.5" x2="1490.5" y2="561.5"/><line class="cls-1" x1="1680.5" y1="444.5" x2="1490.5" y2="444.5"/><line class="cls-1" x1="960.5" y1="409.5" x2="1211.5" y2="409.5"/><line class="cls-1" x1="1148.5" y1="409.5" x2="1148.5" y2="561.5"/><line class="cls-1" x1="960.5" y1="442.5" x2="1012.5" y2="442.5"/><line class="cls-1" x1="1034.5" y1="409.5" x2="1034.5" y2="442.5"/><line class="cls-2" x1="1680.5" y1="544.5" x2="1680.5" y2="444.5"/><line class="cls-1" x1="1680.5" y1="341.5" x2="1680.5" y2="444.5"/><line class="cls-2" x1="1666.5" y1="325.5" x2="1681.5" y2="340.5"/><path class="cls-1" d="M1564,597H1455.89"/><path class="cls-1" d="M1437.89,597H1306.78"/><path class="cls-1" d="M1291.89,597h-89.11"/><path class="cls-1" d="M1187.22,597H1185"/><line class="cls-1" x1="1564" y1="745" x2="1564" y2="597"/><path class="cls-1" d="M1185,745h47.56"/><path class="cls-1" d="M1247.22,745h11.11"/><path class="cls-1" d="M1274.33,745h95.34"/><path class="cls-1" d="M1382.78,745H1564"/><line class="cls-1" x1="1185" y1="597" x2="1185" y2="745"/><line class="cls-1" x1="1211" y1="662" x2="1211" y2="745"/><line class="cls-1" x1="1185" y1="662" x2="1211" y2="662"/><line class="cls-1" x1="1564" y1="662" x2="1211" y2="662"/><line class="cls-1" x1="1257" y1="745" x2="1257" y2="662"/><line class="cls-1" x1="1367" y1="662" x2="1367" y2="745"/><line class="cls-1" x1="1392" y1="662" x2="1392" y2="745"/><line class="cls-1" x1="1475" y1="662" x2="1475" y2="745"/><line class="cls-1" x1="1529" y1="662" x2="1529" y2="745"/><line class="cls-1" x1="1475" y1="704" x2="1507" y2="704"/><line class="cls-1" x1="1288" y1="662" x2="1288" y2="597"/><line class="cls-1" x1="1396" y1="662" x2="1396" y2="597"/><line class="cls-1" x1="1428" y1="619" x2="1396" y2="619"/><line class="cls-1" x1="1446" y1="619" x2="1446" y2="662"/><line class="cls-1" x1="914" y1="890" x2="1839" y2="890"/><line class="cls-1" x1="1839" y1="778" x2="1839" y2="890"/><line class="cls-1" x1="1839" y1="670" x2="1839" y2="214"/><line class="cls-1" x1="915" y1="214" x2="1839" y2="214"/><path class="cls-1" d="M1807.5,671.5v6.83"/><path class="cls-1" d="M1807.5,701v48.44"/><path class="cls-1" d="M1807.5,774.78v2.72"/><line class="cls-1" x1="1807" y1="704" x2="1709" y2="704"/><line class="cls-1" x1="1709" y1="719" x2="1709" y2="704"/><line class="cls-1" x1="1617" y1="745" x2="1617" y2="672"/><line class="cls-1" x1="1596" y1="670" x2="1658" y2="670"/><line class="cls-1" x1="1596" y1="745" x2="1617" y2="745"/><line class="cls-1" x1="1617" y1="719" x2="1674" y2="719"/><line class="cls-1" x1="1674" y1="700" x2="1674" y2="745"/><line class="cls-1" x1="914" y1="778" x2="914" y2="890"/><line class="cls-1" x1="960" y1="630" x2="960" y2="562"/><line class="cls-1" x1="988" y1="662" x2="1148" y2="662"/><line class="cls-1" x1="1149" y1="562" x2="1149" y2="662"/><line class="cls-1" x1="1129" y1="662" x2="1130" y2="745"/><line class="cls-1" x1="1149" y1="745" x2="1130" y2="745"/><line class="cls-1" x1="988" y1="745" x2="988" y2="662"/><line class="cls-1" x1="1062" y1="745" x2="1130" y2="745"/><line class="cls-1" x1="915" y1="214" x2="915" y2="442"/><line class="cls-1" x1="693" y1="328" x2="693" y2="443"/><line class="cls-1" x1="915" y1="442" x2="693" y2="442"/><line class="cls-1" x1="146" y1="328" x2="693" y2="328"/><line class="cls-1" x1="146" y1="736" x2="146" y2="328"/><line class="cls-1" x1="146" y1="771" x2="146" y2="890"/><line class="cls-1" x1="693" y1="890" x2="146" y2="890"/><path class="cls-1" d="M693,771v19.33"/><path class="cls-1" d="M693,810.78V890"/><path class="cls-1" d="M914,771H863.82"/><path class="cls-1" d="M830,771h-32.3"/><path class="cls-1" d="M760.11,771H693"/><line class="cls-1" x1="914" y1="778" x2="914" y2="771"/><path class="cls-1" d="M222,328v35.22"/><path class="cls-1" d="M222,376.26v16"/><path class="cls-1" d="M222,409.74v48.59"/><path class="cls-1" d="M222,472v13"/><path class="cls-1" d="M222,502.19v53.62"/><path class="cls-1" d="M222,567.07V579"/><path class="cls-1" d="M222,592.56V650"/><path class="cls-1" d="M222,663.89V675"/><path class="cls-1" d="M222,687.22V715"/><line class="cls-1" x1="146" y1="715" x2="222" y2="715"/><line class="cls-1" x1="146" y1="668" x2="222" y2="668"/><line class="cls-1" x1="146" y1="622" x2="222" y2="622"/><line class="cls-1" x1="146" y1="574" x2="222" y2="574"/><line class="cls-1" x1="146" y1="526" x2="222" y2="526"/><line class="cls-1" x1="146" y1="478" x2="222" y2="478"/><line class="cls-1" x1="146" y1="431" x2="222" y2="431"/><line class="cls-1" x1="146" y1="385" x2="222" y2="385"/><path class="cls-1" d="M256,410h31"/><path class="cls-1" d="M300.11,410h9.33"/><path class="cls-1" d="M322.78,410h59.55"/><path class="cls-1" d="M395.67,410h10"/><path class="cls-1" d="M419.67,410H481"/><path class="cls-1" d="M493,410h11.33"/><path class="cls-1" d="M515.89,410h62"/><path class="cls-1" d="M590.33,410h9.56"/><path class="cls-1" d="M610.11,410H645"/><line class="cls-1" x1="645" y1="328" x2="645" y2="447"/><line class="cls-1" x1="256" y1="328" x2="256" y2="410"/><line class="cls-1" x1="304" y1="328" x2="304" y2="410"/><line class="cls-1" x1="353" y1="328" x2="353" y2="410"/><line class="cls-1" x1="402" y1="328" x2="402" y2="410"/><line class="cls-1" x1="451" y1="328" x2="451" y2="410"/><line class="cls-1" x1="498" y1="328" x2="498" y2="410"/><line class="cls-1" x1="546" y1="328" x2="546" y2="410"/><line class="cls-1" x1="594" y1="328" x2="594" y2="410"/><path class="cls-1" d="M222,358h9.67"/><path class="cls-1" d="M246.11,358H256"/><path class="cls-1" d="M256,439v84.67"/><path class="cls-1" d="M256,541V683"/><path class="cls-1" d="M610,439H462.78"/><path class="cls-1" d="M445.67,439H256"/><path class="cls-1" d="M666,478v74.67"/><path class="cls-1" d="M666,589.67V736"/><path class="cls-1" d="M300,736h2.56"/><path class="cls-1" d="M323.22,736H456.44"/><path class="cls-1" d="M528.78,736H666"/><line class="cls-1" x1="256" y1="552" x2="666" y2="550"/><line class="cls-1" x1="369" y1="439" x2="369" y2="551"/><line class="cls-1" x1="481" y1="439" x2="481" y2="718"/><line class="cls-1" x1="610" y1="439" x2="610" y2="447"/><line class="cls-1" x1="610" y1="549" x2="610" y2="465"/><line class="cls-1" x1="666" y1="478" x2="628" y2="478"/><line class="cls-1" x1="382" y1="552" x2="382" y2="736"/><line class="cls-1" x1="300" y1="595" x2="300" y2="736"/><path class="cls-1" d="M382,595H342.89"/><path class="cls-1" d="M328.56,595H300"/><line class="cls-1" x1="323" y1="552" x2="323" y2="595"/><line class="cls-1" x1="323" y1="628" x2="323" y2="736"/><line class="cls-1" x1="256" y1="683" x2="300" y2="683"/><path class="cls-1" d="M256,650h25.15"/><path class="cls-1" d="M296.7,650H300"/><path class="cls-1" d="M696,480.85V478h36.44"/><path class="cls-1" d="M747,478h11.33"/><path class="cls-1" d="M769,478h11.56"/><path class="cls-1" d="M807.81,478h22.82"/><path class="cls-1" d="M858.48,478H924v82.56"/><path class="cls-1" d="M924,573V736H829.15"/><path class="cls-1" d="M793.3,736H696v-6.26"/><path class="cls-1" d="M696,704V658.33"/><path class="cls-1" d="M696,644.41V618"/><path class="cls-1" d="M696,606.78V495.07"/><line class="cls-1" x1="754" y1="478" x2="754" y2="736"/><line class="cls-1" x1="773" y1="662" x2="924" y2="662"/><line class="cls-1" x1="864" y1="478" x2="864" y2="662"/><line class="cls-1" x1="773" y1="480" x2="773" y2="504"/><line class="cls-1" x1="864" y1="504" x2="773" y2="504"/><line class="cls-1" x1="864" y1="513" x2="924" y2="513"/><line class="cls-1" x1="696" y1="496" x2="754" y2="496"/><line class="cls-1" x1="696" y1="633" x2="754" y2="633"/><line class="cls-1" x1="696" y1="585" x2="725" y2="585"/><line class="cls-1" x1="725" y1="633" x2="725" y2="585"/><line class="cls-1" x1="696" y1="716" x2="754" y2="716"/><path class="cls-1" d="M146,771H283.89"/><path class="cls-1" d="M299.67,771H448.78"/><path class="cls-1" d="M470.11,771H668"/><path class="cls-1" d="M146,818h73.22"/><path class="cls-1" d="M233.67,818h7.55"/><path class="cls-1" d="M255.89,818H349"/><line class="cls-1" x1="349" y1="771" x2="349" y2="818"/><line class="cls-1" x1="337" y1="890" x2="337" y2="837"/><line class="cls-1" x1="301" y1="890" x2="301" y2="818"/><line class="cls-1" x1="235" y1="818" x2="235" y2="890"/><line class="cls-1" x1="212" y1="771" x2="212" y2="800"/><line class="cls-1" x1="301" y1="771" x2="301" y2="800"/><rect class="cls-4" x="989" y="702" width="46" height="36"/><rect class="cls-4" x="1062" y="662" width="68" height="49"/><rect class="cls-4" x="1617" y="671" width="72" height="30"/><rect class="cls-4" x="645" y="328" width="48" height="73"/><line class="cls-1" x1="645" y1="436" x2="674" y2="436"/><rect class="cls-4" x="181" y="715" width="41" height="28"/><line class="cls-1" x1="223" y1="715" x2="265" y2="715"/><line class="cls-1" x1="265" y1="743" x2="252" y2="743"/><circle class="cls-5" cx="146.5" cy="753.5" r="5.5"/><circle class="cls-5" cx="164.5" cy="753.5" r="5.5"/><circle class="cls-5" cx="164.5" cy="730.5" r="5.5"/><circle class="cls-5" cx="283.5" cy="753.5" r="5.5"/><circle class="cls-5" cx="283.5" cy="700.5" r="5.5"/><circle class="cls-5" cx="238.5" cy="700.5" r="5.5"/><circle class="cls-5" cx="238.5" cy="657.5" r="5.5"/><circle class="cls-5" cx="238.5" cy="573.5" r="5.5"/><circle class="cls-5" cx="238.5" cy="530.5" r="5.5"/><circle class="cls-5" cx="238.5" cy="478.5" r="5.5"/><circle class="cls-5" cx="304.5" cy="424.5" r="5.5"/><circle class="cls-5" cx="238.5" cy="424.5" r="5.5"/><circle class="cls-5" cx="238.5" cy="371.5" r="5.5"/><circle class="cls-5" cx="402.5" cy="424.5" r="5.5"/><circle class="cls-5" cx="497.5" cy="424.5" r="5.5"/><circle class="cls-5" cx="453.5" cy="424.5" r="5.5"/><circle class="cls-5" cx="594.5" cy="424.5" r="5.5"/><circle class="cls-5" cx="628.5" cy="424.5" r="5.5"/><circle class="cls-5" cx="628.5" cy="462.5" r="5.5"/><circle class="cls-5" cx="682.5" cy="463.5" r="5.5"/><circle class="cls-5" cx="682.5" cy="424.5" r="5.5"/><circle class="cls-5" cx="682.5" cy="572.5" r="5.5"/><circle class="cls-5" cx="682.5" cy="753.5" r="5.5"/><circle class="cls-5" cx="481.5" cy="753.5" r="5.5"/><circle class="cls-5" cx="682.5" cy="801.5" r="5.5"/><circle class="cls-5" cx="717.5" cy="801.5" r="5.5"/><circle class="cls-5" cx="778.5" cy="753.5" r="5.5"/><circle class="cls-5" cx="778.5" cy="780.5" r="5.5"/><circle class="cls-5" cx="848.5" cy="780.5" r="5.5"/><circle class="cls-5" cx="848.5" cy="753.5" r="5.5"/><circle class="cls-5" cx="941.5" cy="753.5" r="5.5"/><circle class="cls-5" cx="941.5" cy="650.5" r="5.5"/><circle class="cls-5" cx="941.5" cy="567.5" r="5.5"/><circle class="cls-5" cx="941.5" cy="463.5" r="5.5"/><circle class="cls-5" cx="941.5" cy="309.5" r="5.5"/><circle class="cls-5" cx="1017.5" cy="309.5" r="5.5"/><circle class="cls-5" cx="1111.5" cy="310.5" r="5.5"/><circle class="cls-5" cx="1204.5" cy="310.5" r="5.5"/><circle class="cls-5" cx="1319.5" cy="310.5" r="5.5"/><circle class="cls-5" cx="1433.5" cy="310.5" r="5.5"/><circle class="cls-5" cx="1505.5" cy="310.5" r="5.5"/><circle class="cls-5" cx="1567.5" cy="310.5" r="5.5"/><circle class="cls-5" cx="1677.5" cy="310.5" r="5.5"/><circle class="cls-5" cx="1696.5" cy="329.5" r="5.5"/><circle class="cls-5" cx="1616.5" cy="310.5" r="5.5"/><circle class="cls-5" cx="1696.5" cy="441.5" r="5.5"/><circle class="cls-5" cx="1773.5" cy="441.5" r="5.5"/><circle class="cls-5" cx="1696.5" cy="537.5" r="5.5"/><circle class="cls-5" cx="1696.5" cy="581.5" r="5.5"/><circle class="cls-5" cx="1647.5" cy="581.5" r="5.5"/><circle class="cls-5" cx="1580.5" cy="581.5" r="5.5"/><circle class="cls-5" cx="1580.5" cy="654.5" r="5.5"/><circle class="cls-5" cx="1647.5" cy="654.5" r="5.5"/><circle class="cls-5" cx="1580.5" cy="761.5" r="5.5"/><circle class="cls-5" cx="1642.5" cy="761.5" r="5.5"/><circle class="cls-5" cx="1691.5" cy="761.5" r="5.5"/><circle class="cls-5" cx="1691.5" cy="689.5" r="5.5"/><circle class="cls-5" cx="1807.5" cy="689.5" r="5.5"/><circle class="cls-5" cx="1807.5" cy="761.5" r="5.5"/><circle class="cls-5" cx="1331.5" cy="762.5" r="5.5"/><circle class="cls-5" cx="1105.5" cy="762.5" r="5.5"/><circle class="cls-5" cx="1167.5" cy="762.5" r="5.5"/><circle class="cls-5" cx="1167.5" cy="581.5" r="5.5"/><circle class="cls-5" cx="1298.5" cy="581.5" r="5.5"/><circle class="cls-5" cx="1431.5" cy="581.5" r="5.5"/></svg>